<?xml version="1.0" encoding="UTF-8" standalone="no" ?>
<!DOCTYPE svg PUBLIC "-//W3C//DTD SVG 1.1//EN" "http://www.w3.org/Graphics/SVG/1.1/DTD/svg11.dtd">
<svg xmlns="http://www.w3.org/2000/svg" xmlns:xlink="http://www.w3.org/1999/xlink" version="1.1" width="1080" height="1080" viewBox="0 0 1080 1080" xml:space="preserve">
<desc>Created with Fabric.js 5.2.4</desc>
<defs>
</defs>
<rect x="0" y="0" width="100%" height="100%" fill="transparent"></rect>
<g transform="matrix(1 0 0 1 540 540)" id="196c9906-9351-4bed-a71c-43319fb77687"  >
<rect style="stroke: none; stroke-width: 1; stroke-dasharray: none; stroke-linecap: butt; stroke-dashoffset: 0; stroke-linejoin: miter; stroke-miterlimit: 4; fill: rgb(255,255,255); fill-rule: nonzero; opacity: 1; visibility: hidden;" vector-effect="non-scaling-stroke"  x="-540" y="-540" rx="0" ry="0" width="1080" height="1080" />
</g>
<g transform="matrix(1 0 0 1 540 540)" id="bf521f43-07de-47a8-9f56-c339a7a97fa1"  >
</g>
<g transform="matrix(1 0 0 1 504.5 540)"  >
<path style="stroke: none; stroke-width: 1; stroke-dasharray: none; stroke-linecap: butt; stroke-dashoffset: 0; stroke-linejoin: miter; stroke-miterlimit: 4; fill: rgb(217,83,25); fill-rule: nonzero; opacity: 1;" vector-effect="non-scaling-stroke"  transform=" translate(-10, -10)" d="M 0 4 C 0 1.79086 1.79086 0 4 0 L 20 0 L 20 20 L 4 20 C 1.79086 20 0 18.2091 0 16 L 0 4 Z" stroke-linecap="round" />
</g>
<g transform="matrix(1 0 0 1 504.54 539.44)" clip-path="url(#CLIPPATH_8)"  >
<clipPath id="CLIPPATH_8" >
	<rect transform="matrix(1 0 0 1 -0.04 0.56)" id="clip0_314_166" x="-6" y="-6" rx="0" ry="0" width="12" height="12" />
</clipPath>
<path style="stroke: none; stroke-width: 1; stroke-dasharray: none; stroke-linecap: butt; stroke-dashoffset: 0; stroke-linejoin: miter; stroke-miterlimit: 4; fill: rgb(255,255,255); fill-rule: nonzero; opacity: 1;" vector-effect="non-scaling-stroke"  transform=" translate(-10.04, -9.44)" d="M 6.175 11.5752 C 5.575 11.1252 4.825 10.6002 4 10.0002 C 4.975 9.6252 5.95 9.2502 6.925 8.8752 L 8.125 9.7752 C 7.225 10.8252 6.625 11.2002 6.175 11.5752 Z M 14.2 8.4252 C 13.975 7.8252 13.825 7.2252 13.6 6.6252 C 13.375 5.9502 13.15 5.3502 12.775 4.8252 C 12.625 4.6002 12.325 4.0752 11.95 4.0752 C 11.875 4.0752 11.8 4.1502 11.725 4.1502 C 11.5 4.2252 11.2 4.6752 11.125 4.9752 C 10.9 5.3502 10.45 5.9502 10.15 6.3252 C 10.075 6.4752 9.925 6.6252 9.85 6.7002 C 9.625 6.8502 9.4 7.0752 9.1 7.2252 C 9.025 7.2252 8.95 7.3002 8.875 7.3002 C 8.65 7.3002 8.5 7.4502 8.35 7.5252 C 8.125 7.7502 7.9 8.0502 7.675 8.2752 C 7.675 8.3502 7.6 8.4252 7.525 8.5002 L 8.65 9.3252 C 9.475 8.3502 10.45 7.3752 11.125 5.5002 C 11.125 5.5002 10.9 7.5252 9.1 9.7002 C 7.975 10.9752 7.075 11.6502 6.925 11.8002 C 6.925 11.8002 7.225 11.7252 7.525 11.8752 C 8.125 12.1002 8.425 12.9252 8.65 13.5252 C 8.8 13.9752 9.025 14.3502 9.175 14.8002 C 9.775 14.6502 10.15 14.4252 10.525 14.0502 C 10.9 13.6752 11.275 13.2252 11.65 12.8502 C 12.325 12.0252 13.15 10.9752 14.2 11.5002 C 14.35 11.5752 14.575 11.7252 14.65 11.8002 C 14.875 11.9502 15.025 12.1002 15.25 12.3252 C 15.625 12.6252 15.775 12.8502 16.075 13.0002 C 15.325 11.5002 14.8 10.0002 14.2 8.4252 Z" stroke-linecap="round" />
</g>
<g transform="matrix(1 0 0 1 550 540)"  >
<path style="stroke: none; stroke-width: 1; stroke-dasharray: none; stroke-linecap: butt; stroke-dashoffset: 0; stroke-linejoin: miter; stroke-miterlimit: 4; fill: rgb(0,118,168); fill-rule: nonzero; opacity: 1;" vector-effect="non-scaling-stroke"  transform=" translate(-55.5, -10)" d="M 20 0 L 87 0 C 89.2091 0 91 1.79086 91 4 L 91 16 C 91 18.2091 89.2091 20 87 20 L 20 20 L 20 0 Z" stroke-linecap="round" />
</g>
<g transform="matrix(1 0 0 1 549 540)" style="" id="54fa10a7-24f7-4f06-aadf-0c74fdc9677b"  >
		<text xml:space="preserve" font-family="Lato" font-size="8" font-style="normal" font-weight="100" style="stroke: none; stroke-width: 1; stroke-dasharray: none; stroke-linecap: butt; stroke-dashoffset: 0; stroke-linejoin: miter; stroke-miterlimit: 4; fill: rgb(255,255,255); fill-rule: nonzero; opacity: 1; white-space: pre;" ><tspan x="-27.65" y="2.51" style="font-size: 8px; ">M</tspan><tspan x="-20.34" y="2.51" style="font-size: 8px; ">A</tspan><tspan x="-15.6" y="2.51" style="font-size: 8px; ">T</tspan><tspan x="-10.89" y="2.51" style="font-size: 8px; ">L</tspan><tspan x="-6.76" y="2.51" style="font-size: 8px; ">A</tspan><tspan x="-1.77" y="2.51" style="font-size: 8px; ">B</tspan><tspan x="2.94" y="2.51" style="font-size: 8px; white-space: pre; "> </tspan><tspan x="4.53" y="2.51" style="font-size: 8px; ">O</tspan><tspan x="10.95" y="2.51" style="font-size: 8px; ">n</tspan><tspan x="15.32" y="2.51" style="font-size: 8px; ">l</tspan><tspan x="17.26" y="2.51" style="font-size: 8px; ">i</tspan><tspan x="19.2" y="2.51" style="font-size: 8px; ">n</tspan><tspan x="24.1" y="2.51" style="font-size: 8px; ">e</tspan></text>
</g>
</svg>