<?xml version="1.0" encoding="iso-8859-1"?>
<!-- Generator: Adobe Illustrator 19.1.1, SVG Export Plug-In . SVG Version: 6.00 Build 0)  -->
<svg version="1.1" id="Layer_1" xmlns="http://www.w3.org/2000/svg" xmlns:xlink="http://www.w3.org/1999/xlink" x="0px" y="0px"
	 viewBox="0 0 40 40" style="enable-background:new 0 0 40 40;" xml:space="preserve">
<g>
	<rect x="2.5" y="2.5" style="fill:#99C99E;" width="35" height="35"/>
	<g>
		<path style="fill:#5E9C76;" d="M37,3v34H3V3H37 M38,2H2v36h36V2L38,2z"/>
	</g>
</g>
<g>
	<path style="fill:#FFEEA3;" d="M11.5,33.5c-2.757,0-5-2.243-5-5s2.243-5,5-5c0.521,0,1.039,0.083,1.541,0.245l0.291,0.094
		L23.84,13.333l-0.095-0.292c-0.163-0.5-0.245-1.019-0.245-1.541c0-2.757,2.243-5,5-5s5,2.243,5,5s-2.243,5-5,5
		c-0.521,0-1.039-0.083-1.541-0.245l-0.291-0.094L16.16,26.667l0.095,0.292c0.163,0.5,0.245,1.019,0.245,1.541
		C16.5,31.257,14.257,33.5,11.5,33.5z M11.5,27.5c-0.552,0-1,0.449-1,1s0.448,1,1,1s1-0.449,1-1S12.052,27.5,11.5,27.5z M28.5,10.5
		c-0.552,0-1,0.449-1,1s0.448,1,1,1s1-0.449,1-1S29.052,10.5,28.5,10.5z"/>
	<path style="fill:#5E9C76;" d="M28.5,7c2.481,0,4.5,2.019,4.5,4.5S30.981,16,28.5,16c-0.469,0-0.936-0.074-1.387-0.221
		l-0.582-0.189l-0.433,0.433L16.024,26.097l-0.433,0.433l0.189,0.582C15.926,27.564,16,28.031,16,28.5c0,2.481-2.019,4.5-4.5,4.5
		S7,30.981,7,28.5S9.019,24,11.5,24c0.469,0,0.936,0.074,1.387,0.221l0.582,0.189l0.433-0.433l10.074-10.074l0.433-0.433
		l-0.189-0.582C24.074,12.436,24,11.969,24,11.5C24,9.019,26.019,7,28.5,7 M28.5,13c0.827,0,1.5-0.673,1.5-1.5S29.327,10,28.5,10
		S27,10.673,27,11.5S27.673,13,28.5,13 M11.5,30c0.827,0,1.5-0.673,1.5-1.5S12.327,27,11.5,27S10,27.673,10,28.5S10.673,30,11.5,30
		 M28.5,6C25.462,6,23,8.462,23,11.5c0,0.592,0.096,1.161,0.269,1.696L13.196,23.269C12.661,23.096,12.092,23,11.5,23
		C8.462,23,6,25.462,6,28.5c0,3.038,2.462,5.5,5.5,5.5s5.5-2.462,5.5-5.5c0-0.592-0.096-1.161-0.269-1.696l10.074-10.074
		C27.339,16.904,27.908,17,28.5,17c3.038,0,5.5-2.462,5.5-5.5C34,8.462,31.538,6,28.5,6L28.5,6z M28.5,12
		c-0.276,0-0.5-0.224-0.5-0.5c0-0.276,0.224-0.5,0.5-0.5s0.5,0.224,0.5,0.5C29,11.776,28.776,12,28.5,12L28.5,12z M11.5,29
		c-0.276,0-0.5-0.224-0.5-0.5c0-0.276,0.224-0.5,0.5-0.5s0.5,0.224,0.5,0.5C12,28.776,11.776,29,11.5,29L11.5,29z"/>
</g>
<g>
	<path style="fill:#FFEEA3;" d="M11.5,16.5c-2.757,0-5-2.243-5-5c0-0.522,0.082-1.041,0.245-1.541L6.84,9.667L2.5,5.328V2.5h2.828
		l4.34,4.339l0.291-0.094C10.461,6.583,10.979,6.5,11.5,6.5c2.757,0,5,2.243,5,5S14.257,16.5,11.5,16.5z M11.5,10.5
		c-0.552,0-1,0.449-1,1s0.448,1,1,1s1-0.449,1-1S12.052,10.5,11.5,10.5z"/>
	<path style="fill:#5E9C76;" d="M5.121,3l3.976,3.976L9.53,7.409l0.582-0.189C10.564,7.074,11.031,7,11.5,7
		c2.481,0,4.5,2.019,4.5,4.5S13.981,16,11.5,16S7,13.981,7,11.5c0-0.469,0.074-0.936,0.221-1.387L7.409,9.53L6.976,9.097L3,5.121V3
		H5.121 M11.5,13c0.827,0,1.5-0.673,1.5-1.5S12.327,10,11.5,10S10,10.673,10,11.5S10.673,13,11.5,13 M5.535,2H2v3.535l4.269,4.269
		C6.096,10.339,6,10.908,6,11.5c0,3.038,2.462,5.5,5.5,5.5c3.038,0,5.5-2.462,5.5-5.5S14.538,6,11.5,6
		c-0.592,0-1.161,0.096-1.696,0.269L5.535,2L5.535,2z M11.5,12c-0.276,0-0.5-0.224-0.5-0.5s0.224-0.5,0.5-0.5
		c0.276,0,0.5,0.224,0.5,0.5S11.776,12,11.5,12L11.5,12z"/>
</g>
<g>
	<path style="fill:#FFEEA3;" d="M34.672,37.5l-4.34-4.339l-0.291,0.094C29.539,33.417,29.021,33.5,28.5,33.5c-2.757,0-5-2.243-5-5
		s2.243-5,5-5s5,2.243,5,5c0,0.522-0.082,1.041-0.245,1.541l-0.095,0.292l4.34,4.339V37.5H34.672z M28.5,27.5c-0.552,0-1,0.449-1,1
		s0.448,1,1,1s1-0.449,1-1S29.052,27.5,28.5,27.5z"/>
	<path style="fill:#5E9C76;" d="M28.5,24c2.481,0,4.5,2.019,4.5,4.5c0,0.469-0.074,0.936-0.221,1.387l-0.189,0.582l0.433,0.433
		L37,34.879V37h-2.121l-3.976-3.976l-0.433-0.433l-0.582,0.189C29.436,32.926,28.969,33,28.5,33c-2.481,0-4.5-2.019-4.5-4.5
		S26.019,24,28.5,24 M28.5,30c0.827,0,1.5-0.673,1.5-1.5S29.327,27,28.5,27S27,27.673,27,28.5S27.673,30,28.5,30 M28.5,23
		c-3.038,0-5.5,2.462-5.5,5.5s2.462,5.5,5.5,5.5c0.592,0,1.161-0.096,1.696-0.269L34.465,38H38v-3.535l-4.269-4.269
		C33.904,29.661,34,29.092,34,28.5C34,25.462,31.538,23,28.5,23L28.5,23z M28.5,29c-0.276,0-0.5-0.224-0.5-0.5s0.224-0.5,0.5-0.5
		c0.276,0,0.5,0.224,0.5,0.5S28.776,29,28.5,29L28.5,29z"/>
</g>
</svg>
